<svg width="218" height="161" viewBox="0 0 218 161" fill="none" xmlns="http://www.w3.org/2000/svg">
<path d="M5.81 144V95H27.02C31.4067 95 35.1867 95.7233 38.36 97.17C41.5333 98.57 43.9833 100.6 45.71 103.26C47.4367 105.92 48.3 109.093 48.3 112.78C48.3 116.42 47.4367 119.57 45.71 122.23C43.9833 124.843 41.5333 126.85 38.36 128.25C35.1867 129.65 31.4067 130.35 27.02 130.35H12.11L17.15 125.38V144H5.81ZM36.96 144L24.71 126.22H36.82L49.21 144H36.96ZM17.15 126.64L12.11 121.32H26.39C29.89 121.32 32.5033 120.573 34.23 119.08C35.9567 117.54 36.82 115.44 36.82 112.78C36.82 110.073 35.9567 107.973 34.23 106.48C32.5033 104.987 29.89 104.24 26.39 104.24H12.11L17.15 98.85V126.64ZM75.2046 144.56C70.9113 144.56 67.1313 143.72 63.8646 142.04C60.6446 140.36 58.1479 138.073 56.3746 135.18C54.6013 132.24 53.7146 128.903 53.7146 125.17C53.7146 121.39 54.5779 118.053 56.3046 115.16C58.0779 112.22 60.4813 109.933 63.5146 108.3C66.5479 106.62 69.9779 105.78 73.8046 105.78C77.4913 105.78 80.8046 106.573 83.7446 108.16C86.7313 109.7 89.0879 111.94 90.8146 114.88C92.5413 117.773 93.4046 121.25 93.4046 125.31C93.4046 125.73 93.3813 126.22 93.3346 126.78C93.2879 127.293 93.2413 127.783 93.1946 128.25H62.6046V121.88H87.4546L83.2546 123.77C83.2546 121.81 82.8579 120.107 82.0646 118.66C81.2713 117.213 80.1746 116.093 78.7746 115.3C77.3746 114.46 75.7413 114.04 73.8746 114.04C72.0079 114.04 70.3513 114.46 68.9046 115.3C67.5046 116.093 66.4079 117.237 65.6146 118.73C64.8213 120.177 64.4246 121.903 64.4246 123.91V125.59C64.4246 127.643 64.8679 129.463 65.7546 131.05C66.6879 132.59 67.9713 133.78 69.6046 134.62C71.2846 135.413 73.2446 135.81 75.4846 135.81C77.4913 135.81 79.2413 135.507 80.7346 134.9C82.2746 134.293 83.6746 133.383 84.9346 132.17L90.7446 138.47C89.0179 140.43 86.8479 141.947 84.2346 143.02C81.6213 144.047 78.6113 144.56 75.2046 144.56ZM122.749 144V136.65L122.049 135.04V121.88C122.049 119.547 121.326 117.727 119.879 116.42C118.479 115.113 116.309 114.46 113.369 114.46C111.363 114.46 109.379 114.787 107.419 115.44C105.506 116.047 103.873 116.887 102.519 117.96L98.5994 110.33C100.653 108.883 103.126 107.763 106.019 106.97C108.913 106.177 111.853 105.78 114.839 105.78C120.579 105.78 125.036 107.133 128.209 109.84C131.383 112.547 132.969 116.77 132.969 122.51V144H122.749ZM111.269 144.56C108.329 144.56 105.809 144.07 103.709 143.09C101.609 142.063 99.9994 140.687 98.8794 138.96C97.7594 137.233 97.1994 135.297 97.1994 133.15C97.1994 130.91 97.736 128.95 98.8094 127.27C99.9294 125.59 101.679 124.283 104.059 123.35C106.439 122.37 109.543 121.88 113.369 121.88H123.379V128.25H114.559C111.993 128.25 110.219 128.67 109.239 129.51C108.306 130.35 107.839 131.4 107.839 132.66C107.839 134.06 108.376 135.18 109.449 136.02C110.569 136.813 112.086 137.21 113.999 137.21C115.819 137.21 117.453 136.79 118.899 135.95C120.346 135.063 121.396 133.78 122.049 132.1L123.729 137.14C122.936 139.567 121.489 141.41 119.389 142.67C117.289 143.93 114.583 144.56 111.269 144.56ZM142.853 144V92.06H153.773V144H142.853ZM168.037 144.56C166.171 144.56 164.561 143.93 163.207 142.67C161.901 141.363 161.247 139.707 161.247 137.7C161.247 135.693 161.901 134.083 163.207 132.87C164.561 131.61 166.171 130.98 168.037 130.98C169.951 130.98 171.561 131.61 172.867 132.87C174.174 134.083 174.827 135.693 174.827 137.7C174.827 139.707 174.174 141.363 172.867 142.67C171.561 143.93 169.951 144.56 168.037 144.56Z" fill="#111111"/>
<path d="M32.528 74V65.184L32.3 63.74V48.996C32.3 45.6013 31.3373 42.992 29.412 41.168C27.5373 39.344 24.7253 38.432 20.976 38.432C18.392 38.432 15.9347 38.8627 13.604 39.724C11.2733 40.5853 9.29733 41.7253 7.676 43.144L5.244 39.116C7.27067 37.3933 9.70267 36.076 12.54 35.164C15.3773 34.2013 18.3667 33.72 21.508 33.72C26.676 33.72 30.6533 35.012 33.44 37.596C36.2773 40.1293 37.696 44.0053 37.696 49.224V74H32.528ZM18.772 74.38C15.7827 74.38 13.1733 73.8987 10.944 72.936C8.76533 71.9227 7.09333 70.5547 5.928 68.832C4.76267 67.0587 4.18 65.032 4.18 62.752C4.18 60.6747 4.66133 58.8 5.624 57.128C6.63733 55.4053 8.25867 54.0373 10.488 53.024C12.768 51.96 15.808 51.428 19.608 51.428H33.364V55.456H19.76C15.9093 55.456 13.224 56.14 11.704 57.508C10.2347 58.876 9.5 60.5733 9.5 62.6C9.5 64.88 10.3867 66.704 12.16 68.072C13.9333 69.44 16.416 70.124 19.608 70.124C22.648 70.124 25.2573 69.44 27.436 68.072C29.6653 66.6533 31.2867 64.6267 32.3 61.992L33.516 65.716C32.5027 68.3507 30.7293 70.4533 28.196 72.024C25.7133 73.5947 22.572 74.38 18.772 74.38ZM52.3521 74V34.1H57.5201V44.968L56.9881 43.068C58.1028 40.028 59.9775 37.7227 62.6121 36.152C65.2468 34.5307 68.5148 33.72 72.4161 33.72V38.964C72.2135 38.964 72.0108 38.964 71.8081 38.964C71.6055 38.9133 71.4028 38.888 71.2001 38.888C66.9948 38.888 63.7015 40.18 61.3201 42.764C58.9388 45.2973 57.7481 48.92 57.7481 53.632V74H52.3521ZM98.8392 74.38C94.6845 74.38 91.0365 73.5187 87.8952 71.796C84.7539 70.0227 82.2965 67.616 80.5232 64.576C78.7499 61.4853 77.8632 57.964 77.8632 54.012C77.8632 50.06 78.6992 46.564 80.3712 43.524C82.0939 40.484 84.4245 38.1027 87.3632 36.38C90.3525 34.6067 93.6965 33.72 97.3952 33.72C101.145 33.72 104.463 34.5813 107.351 36.304C110.29 37.976 112.595 40.3573 114.267 43.448C115.939 46.488 116.775 50.0093 116.775 54.012C116.775 54.2653 116.75 54.544 116.699 54.848C116.699 55.1013 116.699 55.38 116.699 55.684H81.9672V51.656H113.811L111.683 53.252C111.683 50.364 111.05 47.8053 109.783 45.576C108.567 43.296 106.895 41.5227 104.767 40.256C102.639 38.9893 100.182 38.356 97.3952 38.356C94.6592 38.356 92.2019 38.9893 90.0232 40.256C87.8445 41.5227 86.1472 43.296 84.9312 45.576C83.7152 47.856 83.1072 50.4653 83.1072 53.404V54.24C83.1072 57.28 83.7659 59.9653 85.0832 62.296C86.4512 64.576 88.3259 66.3747 90.7072 67.692C93.1392 68.9587 95.9005 69.592 98.9912 69.592C101.423 69.592 103.678 69.1613 105.755 68.3C107.883 67.4387 109.707 66.1213 111.227 64.348L114.267 67.844C112.494 69.972 110.265 71.5933 107.579 72.708C104.945 73.8227 102.031 74.38 98.8392 74.38ZM148.126 33.72C151.369 33.72 154.206 34.3533 156.638 35.62C159.121 36.836 161.046 38.7107 162.414 41.244C163.833 43.7773 164.542 46.9693 164.542 50.82V74H159.146V51.352C159.146 47.1467 158.082 43.98 155.954 41.852C153.877 39.6733 150.938 38.584 147.138 38.584C144.301 38.584 141.818 39.1667 139.69 40.332C137.613 41.4467 135.992 43.0933 134.826 45.272C133.712 47.4 133.154 49.984 133.154 53.024V74H127.758V34.1H132.926V45.044L132.09 42.992C133.357 40.104 135.384 37.8493 138.17 36.228C140.957 34.556 144.276 33.72 148.126 33.72ZM175.256 36.152L178.6 22.168L179.208 25.36C178.043 25.36 177.055 25.0053 176.244 24.296C175.484 23.536 175.104 22.548 175.104 21.332C175.104 20.116 175.484 19.128 176.244 18.368C177.055 17.608 178.017 17.228 179.132 17.228C180.297 17.228 181.235 17.6333 181.944 18.444C182.704 19.204 183.084 20.1667 183.084 21.332C183.084 21.7373 183.059 22.1427 183.008 22.548C182.957 22.9533 182.856 23.4093 182.704 23.916C182.603 24.372 182.425 24.9547 182.172 25.664L178.904 36.152H175.256ZM207.245 74.38C203.496 74.38 200.608 73.3667 198.581 71.34C196.555 69.3133 195.541 66.4507 195.541 62.752V25.284H200.937V62.448C200.937 64.7787 201.52 66.5773 202.685 67.844C203.901 69.1107 205.624 69.744 207.853 69.744C210.235 69.744 212.211 69.06 213.781 67.692L215.681 71.568C214.617 72.5307 213.325 73.24 211.805 73.696C210.336 74.152 208.816 74.38 207.245 74.38ZM188.397 38.584V34.1H213.097V38.584H188.397Z" fill="#111111"/>
</svg>
