<svg width="70" height="56" viewBox="0 0 70 56" fill="none" xmlns="http://www.w3.org/2000/svg">
<path d="M48.6525 5.95243L48.6628 6.00136L48.6525 5.95244C42.1763 7.31553 36.1695 10.5615 31.015 14.7778C25.8605 18.9941 21.5211 24.1627 17.6917 29.6485C12.8171 36.632 8.72195 44.1792 5.5105 52.0988C5.09198 53.1305 4.63435 54.2209 3.7097 54.7744C3.10061 55.1386 2.3447 55.1564 1.67896 54.9107C1.01325 54.665 0.443504 54.1579 0.204507 53.4804C-0.188763 52.3635 0.240214 51.1322 0.690736 50.0126C3.46594 43.1208 6.86275 36.4894 10.8254 30.2292C15.5779 22.7215 21.2011 15.6936 28.1256 10.2188C35.0502 4.74407 43.3493 0.87459 52.0762 0.106411C53.0246 0.0231377 54.0022 -0.0168786 54.8695 0.34745C55.7365 0.711632 56.4546 1.58807 56.3609 2.5241C55.6199 9.94496 55.2735 17.4066 55.3218 24.8657C55.3625 31.1362 55.7351 37.6308 58.5095 43.2422C59.9304 46.1157 62.2134 48.8509 65.322 49.5133C65.6656 49.5866 66.0261 49.6399 66.3867 49.6931C66.4256 49.6989 66.4644 49.7046 66.5032 49.7104C66.9032 49.7697 67.3015 49.8318 67.6794 49.9241C68.4354 50.1085 69.1024 50.4117 69.5317 51.0451C69.8716 51.5468 69.9718 52.1385 69.9462 52.7579C69.921 53.3684 69.7739 54.0017 69.6176 54.5959C65.3411 55.8575 60.5751 54.0659 57.3943 50.8752L57.3589 50.9105L57.3943 50.8752C54.206 47.6786 52.415 43.2842 51.3854 38.8398C49.57 31.0057 49.8981 22.9069 50.2258 14.8178C50.3214 12.4584 50.417 10.0998 50.4593 7.74882C50.4652 7.42797 50.4524 7.07029 50.367 6.75359C50.2814 6.43652 50.1212 6.15452 49.828 5.99491L49.8041 6.03882L49.828 5.99489C49.4666 5.79841 49.0305 5.87302 48.6525 5.95243Z" fill="black" stroke="black" stroke-width="0.1"/>
</svg>
